<svg width="847" height="295" viewBox="0 0 847 295" fill="none" xmlns="http://www.w3.org/2000/svg">
<g clip-path="url(#clip0)">
<path d="M290 260C290 240.67 274.33 225 255 225C235.67 225 220 240.67 220 260C220 279.33 235.67 295 255 295C274.33 295 290 279.33 290 260Z" fill="#FF3939"/>
<path d="M220 35C220 15.67 235.67 4.24965e-06 255 7.6294e-06C274.33 1.10092e-05 290 15.67 290 35V171C290 190.33 274.33 206 255 206C235.67 206 220 190.33 220 171V35Z" fill="white"/>
<path d="M1 295L1 225H200V295H1Z" fill="white"/>
<path d="M311 295V224H847V295H311Z" fill="white"/>
<path d="M0.639648 103.76C0.639648 83.6 4.76765 65.648 13.0236 49.904C21.4716 34.16 33.4716 21.968 49.0236 13.328C64.5756 4.49599 82.8157 0.0799904 103.744 0.0799904C130.432 0.0799904 152.128 6.51199 168.832 19.376C185.728 32.24 195.712 49.712 198.784 71.792H131.392C128.896 67.76 125.344 64.688 120.736 62.576C116.128 60.272 110.56 59.12 104.032 59.12C91.7436 59.12 82.2396 63.152 75.5196 71.216C68.7996 79.088 65.4397 89.936 65.4397 103.76C65.4397 119.696 69.1836 131.6 76.6716 139.472C84.1596 147.344 95.6797 151.28 111.232 151.28C126.016 151.28 137.92 145.328 146.944 133.424H95.9677V88.208H199.936V152.144C191.104 167.312 178.912 180.368 163.36 191.312C147.808 202.064 128.128 207.44 104.32 207.44C83.1996 207.44 64.7676 203.12 49.0236 194.48C33.4716 185.648 21.4716 173.36 13.0236 157.616C4.76765 141.872 0.639648 123.92 0.639648 103.76Z" fill="white"/>
<path d="M454.4 0.0960007V50.784H374.336V79.008H431.936V127.104H374.336V204H310.4V0.0960007H454.4Z" fill="white"/>
<path d="M617.4 0.0960007V50.784H537.336V79.008H594.936V127.104H537.336V204H473.4V0.0960007H617.4Z" fill="white"/>
<path d="M847.24 0.0960007L774.088 142.08V204H710.152V142.08L637 0.0960007H710.152L742.696 72.384L775.24 0.0960007H847.24Z" fill="white"/>
</g>
<defs>
<clipPath id="clip0">
<rect width="847" height="295" fill="white"/>
</clipPath>
</defs>
</svg>
