<svg width="1015" height="434" viewBox="0 0 1015 434" fill="none" xmlns="http://www.w3.org/2000/svg">
<path d="M86.64 201.76C86.64 181.6 90.768 163.648 99.024 147.904C107.472 132.16 119.472 119.968 135.024 111.328C150.576 102.496 168.816 98.08 189.744 98.08C216.432 98.08 238.128 104.512 254.832 117.376C271.728 130.24 281.712 147.712 284.784 169.792H217.392C214.896 165.76 211.344 162.688 206.736 160.576C202.128 158.272 196.56 157.12 190.032 157.12C177.744 157.12 168.24 161.152 161.52 169.216C154.8 177.088 151.44 187.936 151.44 201.76C151.44 217.696 155.184 229.6 162.672 237.472C170.16 245.344 181.68 249.28 197.232 249.28C212.016 249.28 223.92 243.328 232.944 231.424H181.968V186.208H285.936V250.144C277.104 265.312 264.912 278.368 249.36 289.312C233.808 300.064 214.128 305.44 190.32 305.44C169.2 305.44 150.768 301.12 135.024 292.48C119.472 283.648 107.472 271.36 99.024 255.616C90.768 239.872 86.64 221.92 86.64 201.76Z" fill="white"/>
<path d="M533.4 98.096V148.784H453.336V177.008H510.936V225.104H453.336V302H389.4V98.096H533.4Z" fill="white"/>
<path d="M696.4 98.096V148.784H616.336V177.008H673.936V225.104H616.336V302H552.4V98.096H696.4Z" fill="white"/>
<path d="M926.24 98.096L853.088 240.08V302H789.152V240.08L716 98.096H789.152L821.696 170.384L854.24 98.096H926.24Z" fill="white"/>
<path d="M303 98.0012L373 98.0012L373 304.001L303 304.001L303 98.0012Z" fill="white"/>
<path d="M70 396L70 326L248 326C267.33 326 283 341.67 283 361V361C283 380.33 267.33 396 248 396L70 396Z" fill="white"/>
<path d="M394 396L394 326L945 326L945 396L394 396Z" fill="white"/>
<rect x="303" y="326.001" width="70" height="70" rx="35" fill="#FF3939"/>
<path d="M945 0.000976562L1015 0.000976563V396.001H945L945 0.000976562Z" fill="white"/>
<path d="M70 70L70 3.8147e-05L945 -1.00492e-07L945 70L70 70Z" fill="white"/>
<path d="M0 0L70 0L70 396H0L0 0Z" fill="white"/>
</svg>
